<svg xmlns="http://www.w3.org/2000/svg" viewBox="0 0 25 27.85"><defs><style>.cls-1{fill:#00753e;}.cls-2{fill:#29abe2;}</style></defs><g id="Layer_2" data-name="Layer 2"><g id="Layer_1-2" data-name="Layer 1"><path class="cls-1" d="M4.46,19A4.32,4.32,0,0,0,0,23.35a4.38,4.38,0,0,0,4.47,4.48,4.42,4.42,0,0,0,4.42-4.38A4.37,4.37,0,0,0,4.46,19Z"/><path class="cls-1" d="M21.87,13.87a3.1,3.1,0,0,0,0-6.2,3.1,3.1,0,1,0,0,6.2Z"/><path class="cls-2" d="M24.82,20A6.59,6.59,0,0,0,19.48,15a2.91,2.91,0,0,1-2-1.65,4,4,0,0,1-.05-2.78,9,9,0,0,0-.31-5.37A8.07,8.07,0,0,0,1.8,10.3a8.17,8.17,0,0,0,2.67,4.08A9.31,9.31,0,0,0,9,16.3a5.92,5.92,0,0,1,1.9.59,3,3,0,0,1,1.39,3.39,7.36,7.36,0,0,0,.21,2.95,6.39,6.39,0,0,0,10.9,2.49A6.16,6.16,0,0,0,24.82,20Z"/></g></g></svg>